# Blender v2.81 (sub 16) OBJ File: 'abode.blend'
# www.blender.org
mtllib abode.mtl
o Cube
v 0.946492 0.278480 -0.946492
v 0.842156 -0.830180 -0.842156
v 0.946492 0.278480 0.946492
v 0.842156 -0.830180 0.842156
v -0.946492 0.278480 -0.946492
v -0.842156 -0.830180 -0.842156
v -0.946492 0.278480 0.946492
v -0.842156 -0.830180 0.842156
v 0.000000 1.012656 0.000000
v 0.759125 -0.762831 0.759125
v -0.759125 -0.762831 0.759125
v 0.759125 -0.762831 -0.759125
v -0.759125 -0.762831 -0.759125
v -0.759125 0.246481 0.759125
v -0.759125 0.246481 -0.759125
v 0.759125 0.246481 0.759125
v 0.759125 0.246481 -0.759125
v 0.868948 -0.733789 -0.868948
v 0.868948 -0.733789 0.868948
v -0.868948 -0.733789 -0.868948
v -0.868948 -0.733789 0.868948
vt 0.625000 0.500000
vt 0.625000 0.250000
vt 0.625000 0.500000
vt 0.562500 0.750000
vt 0.625000 0.750000
vt 0.625000 1.000000
vt 0.562500 1.000000
vt 0.562500 0.000000
vt 0.625000 0.000000
vt 0.562500 0.250000
vt 0.125000 0.500000
vt 0.375000 0.500000
vt 0.375000 0.750000
vt 0.125000 0.750000
vt 0.562500 0.500000
vt 0.437500 0.500000
vt 0.500000 0.500000
vt 0.500000 0.750000
vt 0.437500 0.750000
vt 0.625000 1.000000
vt 0.625000 0.250000
vt 0.625000 0.750000
vt 0.437500 0.250000
vt 0.500000 0.250000
vt 0.437500 0.000000
vt 0.500000 0.000000
vt 0.500000 1.000000
vt 0.437500 1.000000
vt 0.375000 1.000000
vt 0.375000 0.000000
vt 0.375000 0.250000
vn 0.0000 0.7902 -0.6129
vn 0.0000 -0.9857 0.1683
vn -0.1683 -0.9857 0.0000
vn 0.0000 -1.0000 0.0000
vn 0.1683 -0.9857 0.0000
vn 0.0000 -0.9857 -0.1683
vn -0.2557 0.9668 0.0000
vn 0.0000 0.7902 0.6129
vn -0.6129 0.7902 0.0000
vn 0.6129 0.7902 0.0000
vn 0.0000 0.9668 0.2557
vn 0.2557 0.9668 0.0000
vn 0.0000 0.9668 -0.2557
vn 0.0000 0.0000 -1.0000
vn 1.0000 0.0000 0.0000
vn -1.0000 0.0000 0.0000
vn 0.0000 0.0000 1.0000
vn 0.0000 -0.2678 0.9635
vn -0.9635 -0.2678 0.0000
vn 0.0000 -0.2678 -0.9635
vn 0.9635 -0.2678 0.0000
usemtl Material
s off
f 1/1/1 5/2/1 9/3/1
f 16/4/2 3/5/2 7/6/2 14/7/2
f 14/8/3 7/9/3 5/2/3 15/10/3
f 6/11/4 2/12/4 4/13/4 8/14/4
f 17/15/5 1/1/5 3/5/5 16/4/5
f 15/10/6 5/2/6 1/1/6 17/15/6
f 18/16/7 12/17/7 10/18/7 19/19/7
f 7/6/8 3/5/8 9/20/8
f 5/2/9 7/9/9 9/21/9
f 3/5/10 1/1/10 9/22/10
f 20/23/11 13/24/11 12/17/11 18/16/11
f 21/25/12 11/26/12 13/24/12 20/23/12
f 19/19/13 10/18/13 11/27/13 21/28/13
f 13/24/14 15/10/14 17/15/14 12/17/14
f 12/17/15 17/15/15 16/4/15 10/18/15
f 11/26/16 14/8/16 15/10/16 13/24/16
f 10/18/17 16/4/17 14/7/17 11/27/17
f 4/13/18 19/19/18 21/28/18 8/29/18
f 8/30/19 21/25/19 20/23/19 6/31/19
f 6/31/20 20/23/20 18/16/20 2/12/20
f 2/12/21 18/16/21 19/19/21 4/13/21
